<svg width="200" height="200" viewBox="0 0 40 40" fill="none" xmlns="http://www.w3.org/2000/svg">
    <!-- Background gradient circle -->
    <defs>
        <linearGradient id="logoGradient" x1="0%" y1="0%" x2="100%" y2="100%">
            <stop offset="0%" style="stop-color:#667eea;stop-opacity:1" />
            <stop offset="100%" style="stop-color:#764ba2;stop-opacity:1" />
        </linearGradient>
        <filter id="glow">
            <feGaussianBlur stdDeviation="2" result="coloredBlur"/>
            <feMerge>
                <feMergeNode in="coloredBlur"/>
                <feMergeNode in="SourceGraphic"/>
            </feMerge>
        </filter>
    </defs>
    
    <!-- Outer hexagon frame -->
    <path d="M20 2 L34 10 L34 26 L20 34 L6 26 L6 10 Z" 
          stroke="url(#logoGradient)" 
          stroke-width="1.5" 
          fill="none"
          opacity="0.6"/>
    
    <!-- Inner pixel grid representing "Mega Pixel" -->
    <rect x="14" y="12" width="4" height="4" fill="url(#logoGradient)" opacity="0.9"/>
    <rect x="22" y="12" width="4" height="4" fill="url(#logoGradient)" opacity="0.7"/>
    <rect x="14" y="18" width="4" height="4" fill="url(#logoGradient)" opacity="0.8"/>
    <rect x="22" y="18" width="4" height="4" fill="url(#logoGradient)" opacity="1" filter="url(#glow)"/>
    <rect x="14" y="24" width="4" height="4" fill="url(#logoGradient)" opacity="0.7"/>
    <rect x="22" y="24" width="4" height="4" fill="url(#logoGradient)" opacity="0.6"/>
    
    <!-- AI neural network nodes -->
    <circle cx="10" cy="10" r="1.5" fill="#667eea" opacity="0.8"/>
    <circle cx="30" cy="10" r="1.5" fill="#764ba2" opacity="0.8"/>
    <circle cx="10" cy="30" r="1.5" fill="#764ba2" opacity="0.8"/>
    <circle cx="30" cy="30" r="1.5" fill="#667eea" opacity="0.8"/>
    
    <!-- Connection lines representing AI -->
    <line x1="10" y1="10" x2="18" y2="14" stroke="#667eea" stroke-width="0.5" opacity="0.4"/>
    <line x1="30" y1="10" x2="26" y2="14" stroke="#764ba2" stroke-width="0.5" opacity="0.4"/>
    <line x1="10" y1="30" x2="18" y2="26" stroke="#764ba2" stroke-width="0.5" opacity="0.4"/>
    <line x1="30" y1="30" x2="26" y2="26" stroke="#667eea" stroke-width="0.5" opacity="0.4"/>
</svg>
